<svg xmlns="http://www.w3.org/2000/svg" width="1024" height="1024" viewBox="0 0 1024 1024">
  <defs>
    <radialGradient id="bg" cx="50%" cy="46%" r="72%">
      <stop offset="0%" stop-color="#E8743B"/>
      <stop offset="100%" stop-color="#B5562A"/>
    </radialGradient>
  </defs>
  <rect width="1024" height="1024" fill="url(#bg)"/>
  <path d="M871.4 521.1 q-1.6 6.3 -3.2 8.5" stroke="#FCF8F1" stroke-width="1.8" stroke-linecap="round" fill="none" opacity="0.051"/>
<path d="M936.1 453.8 q-2.9 3.3 -5.8 2.6" stroke="#FCF8F1" stroke-width="1.5" stroke-linecap="round" fill="none" opacity="0.050"/>
<path d="M349.7 979.6 q7.3 4.0 14.6 4.0" stroke="#FCF8F1" stroke-width="2.1" stroke-linecap="round" fill="none" opacity="0.033"/>
<path d="M829.0 317.3 q-0.9 4.6 -1.9 5.2" stroke="#FCF8F1" stroke-width="1.6" stroke-linecap="round" fill="none" opacity="0.031"/>
<path d="M154.4 489.8 q7.9 2.3 15.8 0.7" stroke="#FCF8F1" stroke-width="1.3" stroke-linecap="round" fill="none" opacity="0.051"/>
<path d="M31.7 679.4 q0.1 5.6 0.1 7.2" stroke="#FCF8F1" stroke-width="1.3" stroke-linecap="round" fill="none" opacity="0.048"/>
<path d="M735.8 468.7 q9.5 4.1 19.0 4.2" stroke="#FCF8F1" stroke-width="2.1" stroke-linecap="round" fill="none" opacity="0.031"/>
<path d="M555.7 270.7 q-9.6 6.2 -19.1 8.5" stroke="#FCF8F1" stroke-width="1.1" stroke-linecap="round" fill="none" opacity="0.032"/>
<path d="M239.9 1.1 q8.6 4.0 17.2 3.9" stroke="#FCF8F1" stroke-width="1.2" stroke-linecap="round" fill="none" opacity="0.042"/>
<path d="M404.5 897.3 q4.7 6.6 9.4 9.2" stroke="#FCF8F1" stroke-width="1.2" stroke-linecap="round" fill="none" opacity="0.050"/>
<path d="M205.2 578.0 q-15.2 3.5 -30.4 3.0" stroke="#FCF8F1" stroke-width="2.5" stroke-linecap="round" fill="none" opacity="0.043"/>
<path d="M291.0 615.1 q-2.6 4.6 -5.2 5.2" stroke="#FCF8F1" stroke-width="1.4" stroke-linecap="round" fill="none" opacity="0.034"/>
<path d="M944.6 644.8 q6.0 3.6 12.1 3.2" stroke="#FCF8F1" stroke-width="1.6" stroke-linecap="round" fill="none" opacity="0.054"/>
<path d="M745.6 148.7 q-3.2 4.9 -6.3 5.9" stroke="#FCF8F1" stroke-width="2.3" stroke-linecap="round" fill="none" opacity="0.034"/>
<path d="M710.0 624.1 q15.3 2.8 30.6 1.5" stroke="#FCF8F1" stroke-width="1.4" stroke-linecap="round" fill="none" opacity="0.053"/>
<path d="M529.6 64.7 q-5.4 7.3 -10.8 10.5" stroke="#FCF8F1" stroke-width="1.9" stroke-linecap="round" fill="none" opacity="0.033"/>
<path d="M290.7 640.5 q9.4 4.1 18.7 4.2" stroke="#FCF8F1" stroke-width="2.4" stroke-linecap="round" fill="none" opacity="0.033"/>
<path d="M326.8 36.5 q0.1 7.8 0.1 11.7" stroke="#FCF8F1" stroke-width="2.3" stroke-linecap="round" fill="none" opacity="0.051"/>
<path d="M491.1 745.4 q4.7 3.4 9.5 2.8" stroke="#FCF8F1" stroke-width="2.5" stroke-linecap="round" fill="none" opacity="0.033"/>
<path d="M1015.8 188.0 q-0.6 3.8 -1.2 3.6" stroke="#FCF8F1" stroke-width="2.3" stroke-linecap="round" fill="none" opacity="0.040"/>
<path d="M234.7 492.4 q5.8 6.9 11.6 9.7" stroke="#FCF8F1" stroke-width="1.2" stroke-linecap="round" fill="none" opacity="0.031"/>
<path d="M338.1 719.1 q8.2 7.0 16.3 10.0" stroke="#FCF8F1" stroke-width="2.0" stroke-linecap="round" fill="none" opacity="0.049"/>
<path d="M669.8 898.8 q11.4 3.1 22.9 2.2" stroke="#FCF8F1" stroke-width="2.4" stroke-linecap="round" fill="none" opacity="0.028"/>
<path d="M834.7 936.1 q14.6 4.6 29.2 5.2" stroke="#FCF8F1" stroke-width="1.3" stroke-linecap="round" fill="none" opacity="0.046"/>
<path d="M664.8 265.5 q-15.8 2.9 -31.6 1.9" stroke="#FCF8F1" stroke-width="1.7" stroke-linecap="round" fill="none" opacity="0.026"/>
<path d="M21.3 8.6 q11.5 3.2 23.1 2.5" stroke="#FCF8F1" stroke-width="2.0" stroke-linecap="round" fill="none" opacity="0.035"/>
<path d="M517.6 874.0 q-8.3 4.8 -16.5 5.6" stroke="#FCF8F1" stroke-width="2.0" stroke-linecap="round" fill="none" opacity="0.046"/>
<path d="M78.6 600.4 q-1.9 3.3 -3.9 2.5" stroke="#FCF8F1" stroke-width="1.3" stroke-linecap="round" fill="none" opacity="0.033"/>
<path d="M511.3 97.1 q-0.2 4.1 -0.4 4.2" stroke="#FCF8F1" stroke-width="1.4" stroke-linecap="round" fill="none" opacity="0.032"/>
<path d="M881.1 871.7 q-3.5 4.2 -7.0 4.5" stroke="#FCF8F1" stroke-width="1.7" stroke-linecap="round" fill="none" opacity="0.026"/>
<path d="M791.3 728.1 q-5.0 2.8 -10.0 1.5" stroke="#FCF8F1" stroke-width="2.2" stroke-linecap="round" fill="none" opacity="0.040"/>
<path d="M727.6 98.6 q-6.3 5.8 -12.6 7.5" stroke="#FCF8F1" stroke-width="1.9" stroke-linecap="round" fill="none" opacity="0.046"/>
<path d="M385.7 294.3 q-2.8 5.1 -5.6 6.3" stroke="#FCF8F1" stroke-width="1.6" stroke-linecap="round" fill="none" opacity="0.046"/>
<path d="M918.3 405.4 q1.1 7.8 2.2 11.7" stroke="#FCF8F1" stroke-width="2.3" stroke-linecap="round" fill="none" opacity="0.050"/>
<path d="M476.9 198.9 q-11.3 5.7 -22.7 7.5" stroke="#FCF8F1" stroke-width="2.0" stroke-linecap="round" fill="none" opacity="0.030"/>
<path d="M1005.2 171.0 q4.1 3.2 8.2 2.4" stroke="#FCF8F1" stroke-width="1.4" stroke-linecap="round" fill="none" opacity="0.030"/>
<path d="M970.8 390.6 q-4.6 3.2 -9.1 2.5" stroke="#FCF8F1" stroke-width="1.9" stroke-linecap="round" fill="none" opacity="0.042"/>
<path d="M428.5 823.8 q-6.9 2.7 -13.9 1.4" stroke="#FCF8F1" stroke-width="1.7" stroke-linecap="round" fill="none" opacity="0.040"/>
<path d="M0.9 941.9 q5.1 4.5 10.2 5.0" stroke="#FCF8F1" stroke-width="1.2" stroke-linecap="round" fill="none" opacity="0.040"/>
<path d="M424.7 393.7 q-8.9 2.9 -17.8 1.8" stroke="#FCF8F1" stroke-width="1.6" stroke-linecap="round" fill="none" opacity="0.044"/>
<path d="M837.0 500.8 q-4.4 2.2 -8.8 0.3" stroke="#FCF8F1" stroke-width="1.8" stroke-linecap="round" fill="none" opacity="0.041"/>
<path d="M542.2 1014.5 q-13.2 5.0 -26.4 5.9" stroke="#FCF8F1" stroke-width="2.3" stroke-linecap="round" fill="none" opacity="0.029"/>
<path d="M33.8 948.9 q-1.6 3.6 -3.2 3.2" stroke="#FCF8F1" stroke-width="2.0" stroke-linecap="round" fill="none" opacity="0.040"/>
<path d="M232.5 370.7 q8.1 5.8 16.2 7.7" stroke="#FCF8F1" stroke-width="2.4" stroke-linecap="round" fill="none" opacity="0.054"/>
<path d="M650.8 612.5 q6.8 3.3 13.5 2.6" stroke="#FCF8F1" stroke-width="1.8" stroke-linecap="round" fill="none" opacity="0.033"/>
<path d="M100.8 314.8 q-8.6 6.6 -17.2 9.2" stroke="#FCF8F1" stroke-width="2.0" stroke-linecap="round" fill="none" opacity="0.036"/>
<path d="M286.2 25.6 q4.4 2.3 8.8 0.6" stroke="#FCF8F1" stroke-width="1.7" stroke-linecap="round" fill="none" opacity="0.025"/>
<path d="M839.3 834.3 q1.1 4.0 2.2 3.9" stroke="#FCF8F1" stroke-width="1.2" stroke-linecap="round" fill="none" opacity="0.044"/>
<path d="M71.2 594.3 q-0.4 3.4 -0.9 2.8" stroke="#FCF8F1" stroke-width="2.6" stroke-linecap="round" fill="none" opacity="0.030"/>
<path d="M162.1 788.8 q-14.5 4.7 -28.9 5.3" stroke="#FCF8F1" stroke-width="1.1" stroke-linecap="round" fill="none" opacity="0.038"/>
<path d="M979.3 663.4 q-4.2 5.8 -8.3 7.7" stroke="#FCF8F1" stroke-width="2.4" stroke-linecap="round" fill="none" opacity="0.038"/>
<path d="M159.7 448.2 q6.9 5.0 13.8 6.0" stroke="#FCF8F1" stroke-width="2.2" stroke-linecap="round" fill="none" opacity="0.043"/>
<path d="M656.2 590.8 q5.2 4.9 10.5 5.7" stroke="#FCF8F1" stroke-width="1.4" stroke-linecap="round" fill="none" opacity="0.053"/>
<path d="M546.0 425.5 q2.2 6.1 4.3 8.3" stroke="#FCF8F1" stroke-width="2.2" stroke-linecap="round" fill="none" opacity="0.053"/>
<path d="M178.2 572.4 q3.6 4.9 7.2 5.9" stroke="#FCF8F1" stroke-width="1.2" stroke-linecap="round" fill="none" opacity="0.042"/>
<path d="M476.2 320.6 q15.8 3.8 31.6 3.7" stroke="#FCF8F1" stroke-width="1.3" stroke-linecap="round" fill="none" opacity="0.042"/>
<path d="M318.9 334.7 q-3.9 4.7 -7.9 5.3" stroke="#FCF8F1" stroke-width="1.0" stroke-linecap="round" fill="none" opacity="0.033"/>
<path d="M766.7 709.6 q-10.9 3.5 -21.7 3.1" stroke="#FCF8F1" stroke-width="1.5" stroke-linecap="round" fill="none" opacity="0.043"/>
<path d="M989.1 784.2 q-5.1 2.9 -10.1 1.9" stroke="#FCF8F1" stroke-width="2.5" stroke-linecap="round" fill="none" opacity="0.041"/>
<path d="M670.0 468.5 q-13.9 3.0 -27.7 1.9" stroke="#FCF8F1" stroke-width="2.2" stroke-linecap="round" fill="none" opacity="0.050"/>
<path d="M148.8 592.1 q-5.2 4.1 -10.4 4.2" stroke="#FCF8F1" stroke-width="1.2" stroke-linecap="round" fill="none" opacity="0.037"/>
<path d="M340.3 207.3 q-3.4 3.2 -6.7 2.4" stroke="#FCF8F1" stroke-width="1.6" stroke-linecap="round" fill="none" opacity="0.045"/>
<path d="M148.5 689.3 q2.2 6.6 4.5 9.2" stroke="#FCF8F1" stroke-width="2.4" stroke-linecap="round" fill="none" opacity="0.030"/>
<path d="M701.2 1021.7 q-2.4 5.0 -4.7 5.9" stroke="#FCF8F1" stroke-width="2.4" stroke-linecap="round" fill="none" opacity="0.049"/>
<path d="M972.9 685.2 q-3.3 7.8 -6.7 11.5" stroke="#FCF8F1" stroke-width="1.1" stroke-linecap="round" fill="none" opacity="0.047"/>
<path d="M531.9 827.2 q6.4 2.6 12.7 1.3" stroke="#FCF8F1" stroke-width="2.6" stroke-linecap="round" fill="none" opacity="0.038"/>
<path d="M424.8 150.5 q10.9 2.8 21.8 1.7" stroke="#FCF8F1" stroke-width="1.1" stroke-linecap="round" fill="none" opacity="0.049"/>
<path d="M892.2 330.1 q-4.6 5.2 -9.1 6.4" stroke="#FCF8F1" stroke-width="2.4" stroke-linecap="round" fill="none" opacity="0.050"/>
<path d="M905.2 364.7 q9.5 3.8 19.0 3.5" stroke="#FCF8F1" stroke-width="2.1" stroke-linecap="round" fill="none" opacity="0.047"/>
<path d="M275.5 519.6 q9.8 2.6 19.6 1.3" stroke="#FCF8F1" stroke-width="1.9" stroke-linecap="round" fill="none" opacity="0.055"/>
<path d="M705.7 188.0 q4.5 7.2 9.0 10.3" stroke="#FCF8F1" stroke-width="1.8" stroke-linecap="round" fill="none" opacity="0.051"/>
<path d="M484.4 631.6 q-6.3 3.0 -12.7 2.0" stroke="#FCF8F1" stroke-width="2.3" stroke-linecap="round" fill="none" opacity="0.052"/>
<path d="M521.9 862.9 q-5.2 4.9 -10.5 5.8" stroke="#FCF8F1" stroke-width="1.6" stroke-linecap="round" fill="none" opacity="0.049"/>
<path d="M815.0 462.8 q-4.0 5.1 -8.0 6.3" stroke="#FCF8F1" stroke-width="2.3" stroke-linecap="round" fill="none" opacity="0.035"/>
<path d="M873.4 220.7 q6.4 3.2 12.8 2.5" stroke="#FCF8F1" stroke-width="1.7" stroke-linecap="round" fill="none" opacity="0.040"/>
<path d="M709.8 795.8 q1.8 4.7 3.6 5.3" stroke="#FCF8F1" stroke-width="2.1" stroke-linecap="round" fill="none" opacity="0.039"/>
<path d="M749.3 66.6 q-6.1 2.2 -12.1 0.4" stroke="#FCF8F1" stroke-width="1.3" stroke-linecap="round" fill="none" opacity="0.039"/>
<path d="M887.6 854.5 q-1.3 3.5 -2.6 2.9" stroke="#FCF8F1" stroke-width="1.4" stroke-linecap="round" fill="none" opacity="0.031"/>
<path d="M525.3 951.1 q7.2 5.0 14.3 6.0" stroke="#FCF8F1" stroke-width="1.1" stroke-linecap="round" fill="none" opacity="0.050"/>
<path d="M411.5 272.6 q-5.6 4.2 -11.3 4.4" stroke="#FCF8F1" stroke-width="2.3" stroke-linecap="round" fill="none" opacity="0.029"/>
<path d="M794.6 662.9 q7.7 4.9 15.3 5.9" stroke="#FCF8F1" stroke-width="2.0" stroke-linecap="round" fill="none" opacity="0.026"/>
<path d="M306.4 368.7 q5.8 3.2 11.6 2.3" stroke="#FCF8F1" stroke-width="1.2" stroke-linecap="round" fill="none" opacity="0.035"/>
<path d="M872.4 215.1 q-5.8 6.3 -11.6 8.5" stroke="#FCF8F1" stroke-width="1.5" stroke-linecap="round" fill="none" opacity="0.036"/>
<path d="M1018.7 926.2 q-6.1 2.7 -12.1 1.4" stroke="#FCF8F1" stroke-width="2.4" stroke-linecap="round" fill="none" opacity="0.029"/>
<path d="M393.6 736.7 q9.8 6.2 19.7 8.5" stroke="#FCF8F1" stroke-width="1.5" stroke-linecap="round" fill="none" opacity="0.038"/>
<path d="M983.2 272.9 q2.2 3.9 4.4 3.9" stroke="#FCF8F1" stroke-width="2.2" stroke-linecap="round" fill="none" opacity="0.050"/>
<path d="M883.7 535.9 q-12.2 5.9 -24.3 7.8" stroke="#FCF8F1" stroke-width="1.4" stroke-linecap="round" fill="none" opacity="0.052"/>
<circle cx="4.6" cy="324.8" r="1.6" fill="#FCF8F1" opacity="0.024"/>
<circle cx="544.9" cy="1014.9" r="0.9" fill="#FCF8F1" opacity="0.029"/>
<circle cx="556.4" cy="999.7" r="1.0" fill="#FCF8F1" opacity="0.050"/>
<circle cx="541.1" cy="269.4" r="1.7" fill="#FCF8F1" opacity="0.036"/>
<circle cx="95.3" cy="933.6" r="1.0" fill="#FCF8F1" opacity="0.028"/>
<circle cx="358.9" cy="406.2" r="2.4" fill="#FCF8F1" opacity="0.046"/>
<circle cx="240.8" cy="342.7" r="1.3" fill="#FCF8F1" opacity="0.047"/>
<circle cx="460.0" cy="941.3" r="1.3" fill="#FCF8F1" opacity="0.038"/>
<circle cx="395.3" cy="416.1" r="2.3" fill="#FCF8F1" opacity="0.046"/>
<circle cx="616.2" cy="145.4" r="2.3" fill="#FCF8F1" opacity="0.027"/>
<circle cx="797.7" cy="9.4" r="0.9" fill="#FCF8F1" opacity="0.034"/>
<circle cx="454.1" cy="563.4" r="1.0" fill="#FCF8F1" opacity="0.029"/>
<circle cx="39.6" cy="757.9" r="1.3" fill="#FCF8F1" opacity="0.028"/>
<circle cx="601.2" cy="863.5" r="1.9" fill="#FCF8F1" opacity="0.042"/>
<circle cx="805.0" cy="499.0" r="2.4" fill="#FCF8F1" opacity="0.022"/>
<circle cx="210.6" cy="214.6" r="1.5" fill="#FCF8F1" opacity="0.046"/>
<circle cx="188.5" cy="225.4" r="2.3" fill="#FCF8F1" opacity="0.028"/>
<circle cx="701.2" cy="323.3" r="0.9" fill="#FCF8F1" opacity="0.035"/>
<circle cx="423.8" cy="765.1" r="2.1" fill="#FCF8F1" opacity="0.028"/>
<circle cx="906.5" cy="84.3" r="2.3" fill="#FCF8F1" opacity="0.027"/>
<circle cx="904.7" cy="260.4" r="2.2" fill="#FCF8F1" opacity="0.038"/>
<circle cx="1018.6" cy="751.5" r="1.2" fill="#FCF8F1" opacity="0.049"/>
<circle cx="431.3" cy="42.8" r="1.2" fill="#FCF8F1" opacity="0.024"/>
<circle cx="475.8" cy="113.6" r="1.8" fill="#FCF8F1" opacity="0.045"/>
<circle cx="199.7" cy="228.4" r="1.2" fill="#FCF8F1" opacity="0.040"/>
<circle cx="1001.8" cy="237.6" r="0.8" fill="#FCF8F1" opacity="0.033"/>
<circle cx="1023.1" cy="91.6" r="2.3" fill="#FCF8F1" opacity="0.047"/>
<circle cx="883.7" cy="540.3" r="2.0" fill="#FCF8F1" opacity="0.043"/>
<circle cx="930.4" cy="609.9" r="1.0" fill="#FCF8F1" opacity="0.031"/>
<circle cx="276.2" cy="562.5" r="0.9" fill="#FCF8F1" opacity="0.039"/>
<circle cx="650.7" cy="995.8" r="1.5" fill="#FCF8F1" opacity="0.023"/>
<circle cx="640.6" cy="641.2" r="2.3" fill="#FCF8F1" opacity="0.040"/>
<circle cx="732.0" cy="800.0" r="2.0" fill="#FCF8F1" opacity="0.025"/>
<circle cx="396.3" cy="1002.6" r="1.4" fill="#FCF8F1" opacity="0.022"/>
<circle cx="194.4" cy="500.2" r="1.8" fill="#FCF8F1" opacity="0.042"/>
<circle cx="690.7" cy="334.1" r="1.6" fill="#FCF8F1" opacity="0.025"/>
<circle cx="553.3" cy="351.8" r="2.1" fill="#FCF8F1" opacity="0.045"/>
<circle cx="464.7" cy="900.2" r="2.1" fill="#FCF8F1" opacity="0.030"/>
<circle cx="711.0" cy="257.2" r="1.1" fill="#FCF8F1" opacity="0.045"/>
<circle cx="749.6" cy="407.7" r="1.5" fill="#FCF8F1" opacity="0.024"/>
<circle cx="237.9" cy="278.7" r="1.0" fill="#FCF8F1" opacity="0.049"/>
<circle cx="486.4" cy="298.1" r="2.1" fill="#FCF8F1" opacity="0.027"/>
<circle cx="528.8" cy="485.4" r="1.8" fill="#FCF8F1" opacity="0.039"/>
<circle cx="767.9" cy="101.8" r="1.9" fill="#FCF8F1" opacity="0.025"/>
  <circle cx="512" cy="512" r="466" fill="none" stroke="#FCF8F1" stroke-width="13" opacity="0.9"/>
  <g transform="translate(64 70) scale(7)">
  <g>
    <!-- ears (outline behind) -->
    <circle cx="30" cy="32" r="12" fill="#F2B33D" stroke="#B5862A" stroke-width="2.4"/>
    <circle cx="98" cy="32" r="12" fill="#F2B33D" stroke="#B5862A" stroke-width="2.4"/>
    <circle cx="30" cy="32" r="6" fill="#F8B4B4" opacity="0.85"/>
    <circle cx="98" cy="32" r="6" fill="#F8B4B4" opacity="0.85"/>
    <!-- head -->
    <circle cx="64" cy="64" r="44" fill="#F2B33D" stroke="#B5862A" stroke-width="2.6"/>
    <!-- stripes: 3 per side + forehead (Hoya.tsx Stripes()) -->
    <g stroke="#2A1F14" stroke-width="3" stroke-linecap="round" fill="none">
      <path d="M26 54 Q30 58 26 62"/>
      <path d="M24 70 Q29 73 25 78"/>
      <path d="M28 84 Q33 86 30 90"/>
      <path d="M102 54 Q98 58 102 62"/>
      <path d="M104 70 Q99 73 103 78"/>
      <path d="M100 84 Q95 86 98 90"/>
      <path d="M64 24 Q66 30 64 36"/>
    </g>
    <!-- cream muzzle patch -->
    <ellipse cx="64" cy="90" rx="18" ry="13" fill="#FCF8F1"/>
    <!-- eyes (idle) + glints -->
    <ellipse cx="50" cy="72" rx="3.5" ry="4" fill="#2A1F14"/>
    <ellipse cx="78" cy="72" rx="3.5" ry="4" fill="#2A1F14"/>
    <circle cx="51.2" cy="70.7" r="0.9" fill="#FCF8F1"/>
    <circle cx="79.2" cy="70.7" r="0.9" fill="#FCF8F1"/>
    <!-- cheek blush -->
    <circle cx="42" cy="84" r="5" fill="#F8B4B4" opacity="0.6"/>
    <circle cx="86" cy="84" r="5" fill="#F8B4B4" opacity="0.6"/>
    <!-- nose + idle mouth -->
    <path d="M58 84 H70 L64 90 Z" fill="#2A1F14"/>
    <path d="M54 92 Q64 100 74 92" stroke="#2A1F14" stroke-width="3" stroke-linecap="round" fill="none"/>
  </g></g>
</svg>